<svg width="396" height="73" viewBox="0 0 396 73" fill="none" xmlns="http://www.w3.org/2000/svg">
<g clip-path="url(#clip0_23_252)">
<path d="M122.56 35.9823C122.56 46.5383 115.109 54.1938 102.893 54.1938H89.9594V17.9756H102.893C115.109 17.9756 122.56 25.5288 122.56 35.9823ZM114.279 35.9823C114.279 29.2592 110.18 24.5962 103.416 24.5962H98.0861V47.5733H103.416C110.19 47.5733 114.279 42.8692 114.279 35.9823Z" fill="#333333"/>
<path d="M163.954 33.6046V44.4168C163.954 47.1121 165.563 48.5162 168.197 48.5162C169.703 48.5173 171.183 48.1252 172.491 47.3786V53.5278C170.796 54.3301 168.935 54.7199 167.059 54.6653C160.798 54.6653 156.658 50.9861 156.658 45.4417V33.6046H151.953V27.9065H152.056C155.213 27.9065 156.658 26.6152 156.658 23.5611V20.0254H163.954V27.886H172.973V33.5842L163.954 33.6046Z" fill="#333333"/>
<path d="M201.156 41.0046C201.156 49.2034 195.827 54.8709 187.443 54.8709C179.06 54.8709 173.782 49.2342 173.782 41.0046C173.782 32.7751 179.121 27.1999 187.443 27.1999C195.765 27.1999 201.156 32.8776 201.156 41.0046ZM180.925 41.0046C180.925 45.6574 183.303 49.0189 187.443 49.0189C191.584 49.0189 194.023 45.6574 194.023 41.0046C194.023 36.3518 191.635 33.0825 187.443 33.0825C183.252 33.0825 180.925 36.4235 180.925 41.0046Z" fill="#333333"/>
<path d="M214.664 32.2515C212.132 32.2515 210.564 33.4506 210.564 34.9981C210.564 36.9658 212.378 37.3245 216.16 38.2059C222.002 39.446 226.501 40.3274 226.501 46.333C226.501 52.0209 222.258 54.87 215.329 54.87C207.777 54.87 203.37 51.2523 203.032 44.888H209.549C210.021 47.9625 212.091 49.6433 215.248 49.6433C217.779 49.6433 219.542 48.8131 219.542 46.6917C219.542 44.7752 218.189 44.4165 213.639 43.4327C207.9 42.1926 203.759 41.1062 203.759 35.3055C203.759 29.7714 208.207 27.24 214.725 27.24C221.714 27.24 225.639 30.3145 226.265 36.2382H219.695C219.265 33.7068 217.667 32.2515 214.664 32.2515Z" fill="#333333"/>
<path d="M272.977 17.9756V54.1938H264.86V39.1901H249.487V54.1938H241.36V17.9756H249.487V32.5695H264.86V17.9756H272.977Z" fill="#333333"/>
<path d="M277.507 41.1062C277.507 32.8254 282.785 27.24 290.912 27.24C299.398 27.24 303.743 33.0304 303.743 41.4137V42.5718H284.65V42.7357C284.907 46.8352 287.55 49.3562 290.912 49.3562C292.103 49.4288 293.285 49.1081 294.275 48.4433C295.266 47.7785 296.011 46.8066 296.395 45.6771H303.569C301.97 51.7339 297.256 54.8392 290.942 54.8392C282.631 54.87 277.507 49.2333 277.507 41.1062ZM296.815 38.4109C296.703 34.8957 294.591 32.4155 290.963 32.4155C287.55 32.4155 285.275 34.7419 284.814 38.4109H296.815Z" fill="#333333"/>
<path d="M330.963 37.2228V54.1943H326.976C326.161 54.1943 325.378 53.8703 324.802 53.2938C324.225 52.7172 323.901 51.9352 323.901 51.1198V50.5459C323.03 51.9396 320.284 54.43 315.159 54.43C310.035 54.43 306.469 51.5297 306.469 46.8667C306.469 41.8039 310.302 37.9197 321.319 37.9197H323.901V37.2433C323.903 36.631 323.783 36.0245 323.549 35.4587C323.315 34.8929 322.972 34.3791 322.538 33.9466C322.104 33.5141 321.59 33.1717 321.024 32.9389C320.458 32.7062 319.851 32.5877 319.238 32.5904C316.481 32.5904 314.801 34.1072 314.596 36.3722H307.657C307.76 30.469 312.516 27.21 319.3 27.21C326.822 27.1997 330.963 30.9097 330.963 37.2228ZM323.922 44.2635V42.3983H321.39C315.436 42.3983 313.735 44.2122 313.735 46.3849C313.735 48.3014 315.282 49.4594 317.711 49.4594C321.186 49.4902 323.922 47.1639 323.922 44.2635Z" fill="#333333"/>
<path d="M342.861 17.9756V54.1938H335.564V17.9756H342.861Z" fill="#333333"/>
<path d="M357.61 33.6046V44.4168C357.61 47.1121 359.209 48.5162 361.853 48.5162C363.359 48.5173 364.839 48.1252 366.147 47.3786V53.5278C364.451 54.3301 362.59 54.7199 360.715 54.6653C354.453 54.6653 350.313 50.9861 350.313 45.4417V33.6046H345.609V27.9065H345.711C348.868 27.9065 350.313 26.6152 350.313 23.5611V20.0254H357.61V27.886H366.67V33.5842L357.61 33.6046Z" fill="#333333"/>
<path d="M395.232 38.0525V54.1938H387.935V39.6102C387.935 35.931 386.121 33.6558 383.272 33.6558C379.603 33.6558 377.061 36.1872 377.061 40.8298V54.1529H369.744V17.9756H377.031V32.7745C377.682 31.0865 378.846 29.645 380.359 28.6524C381.871 27.6598 383.657 27.166 385.465 27.2402C391.758 27.1993 395.232 31.6369 395.232 38.0525Z" fill="#333333"/>
<path d="M149.985 37.2228V54.1943H145.999C145.183 54.1943 144.401 53.8703 143.824 53.2938C143.248 52.7172 142.924 51.9352 142.924 51.1198V50.5459C142.043 51.9396 139.306 54.43 134.182 54.43C129.057 54.43 125.491 51.5297 125.491 46.8667C125.491 41.8039 129.314 37.9197 140.341 37.9197H142.924V37.2433C142.925 36.631 142.805 36.0245 142.571 35.4587C142.337 34.8929 141.993 34.3791 141.56 33.9466C141.127 33.5141 140.612 33.1717 140.046 32.9389C139.48 32.7062 138.872 32.5877 138.26 32.5904C135.504 32.5904 133.812 34.1072 133.608 36.3722H126.68C126.782 30.469 131.537 27.21 138.322 27.21C145.845 27.1997 149.985 30.9097 149.985 37.2228ZM142.944 44.2635V42.3983H140.413C134.458 42.3983 132.757 44.2122 132.757 46.3849C132.757 48.3014 134.304 49.4594 136.733 49.4594C140.177 49.4902 142.944 47.1639 142.944 44.2635Z" fill="#333333"/>
<path d="M27.0203 49.2346V49.9234C27.0203 52.5632 24.8801 54.7033 22.2402 54.7033H17.5672V18.1658H22.2402C24.8801 18.1658 27.0203 20.3059 27.0203 22.9458V23.6145C27.0207 16.1684 30.5445 9.55942 36 5.31645C32.0719 2.26147 27.1496 0.424561 21.7881 0.424561H0V72.4246H21.7881C27.1496 72.4246 32.0719 70.5875 36 67.5326C30.5445 63.2895 27.0207 56.6807 27.0203 49.2346Z" fill="#A07AFC"/>
<path d="M50.2117 0.424561C44.8504 0.424561 39.9277 2.26147 36 5.31645C41.4539 9.55845 44.9771 16.1655 44.9793 23.6095V22.9258C44.9793 20.2859 47.1193 18.1458 49.7594 18.1458H54.4322V54.6833H49.7594C47.1193 54.6833 44.9793 52.5433 44.9793 49.9035V49.2396C44.9771 56.6836 41.4539 63.2905 36 67.5326C39.9277 70.5875 44.8504 72.4246 50.2117 72.4246H72V0.424561H50.2117Z" fill="#B6BDFF"/>
<path d="M44.9796 31.6988V23.6162C44.9796 16.1693 41.4558 9.55973 36 5.31647C30.5441 9.55973 27.0203 16.1693 27.0203 23.6162V31.6988H44.9796Z" fill="#6D60F3"/>
<path d="M27.0203 41.1517V49.233C27.0203 56.6799 30.5441 63.2892 36 67.5326C41.4558 63.2892 44.9796 56.6799 44.9796 49.233V41.1517H27.0203Z" fill="#6D60F3"/>
</g>
<defs>
<clipPath id="clip0_23_252">
<rect width="395.232" height="72" fill="white" transform="translate(0 0.424561)"/>
</clipPath>
</defs>
</svg>
